<svg width="173" height="29" viewBox="0 0 173 29" fill="none" xmlns="http://www.w3.org/2000/svg">
<path d="M168.35 21.4297C168.041 21.1576 167.658 20.8916 167.2 20.6318C166.742 20.3721 166.18 20.1432 165.512 19.9453C164.844 19.735 164.046 19.568 163.118 19.4443C162.203 19.3083 161.126 19.2402 159.889 19.2402C158.789 19.2402 157.743 19.265 156.754 19.3145C155.777 19.3516 154.917 19.4753 154.175 19.6855C153.432 19.8835 152.845 20.2051 152.412 20.6504C151.979 21.0957 151.763 21.7142 151.763 22.5059V24.8809C152.851 25.054 154.051 25.1963 155.362 25.3076C156.673 25.4189 158.133 25.4746 159.741 25.4746C161.027 25.4746 162.394 25.4313 163.842 25.3447C165.301 25.2458 166.804 25.054 168.35 24.7695V21.4297ZM160.001 7.84766C160.619 7.84766 161.368 7.87858 162.246 7.94043C163.124 8.00228 164.04 8.11361 164.992 8.27441C165.944 8.42285 166.885 8.63314 167.812 8.90527C168.752 9.16504 169.594 9.51139 170.336 9.94434C171.09 10.3649 171.696 10.8721 172.154 11.4658C172.612 12.0596 172.841 12.7585 172.841 13.5625V27.9238C171.802 28.1341 170.626 28.3135 169.315 28.4619C168.19 28.598 166.847 28.7217 165.289 28.833C163.73 28.9443 161.992 29 160.075 29C158.17 29 156.141 28.9196 153.989 28.7588C151.849 28.598 149.61 28.3197 147.272 27.9238V21.2441C147.272 20.5267 147.439 19.902 147.773 19.3701C148.12 18.8258 148.59 18.362 149.183 17.9785C149.777 17.5951 150.476 17.2796 151.28 17.0322C152.084 16.7848 152.95 16.5869 153.878 16.4385C154.805 16.29 155.77 16.1911 156.772 16.1416C157.774 16.0798 158.776 16.0488 159.778 16.0488C161.3 16.0488 162.592 16.1478 163.656 16.3457C164.732 16.5312 165.623 16.7354 166.328 16.958C167.144 17.2301 167.819 17.5332 168.35 17.8672V14.8613C168.35 14.3542 168.227 13.9212 167.979 13.5625C167.732 13.1914 167.398 12.8822 166.977 12.6348C166.557 12.375 166.074 12.1709 165.53 12.0225C164.986 11.8617 164.417 11.738 163.823 11.6514C163.229 11.5648 162.623 11.5091 162.005 11.4844C161.399 11.4596 160.83 11.4473 160.298 11.4473C159.741 11.4473 159.147 11.4658 158.516 11.5029C157.886 11.5277 157.255 11.5833 156.624 11.6699C156.005 11.7565 155.405 11.8802 154.824 12.041C154.255 12.1895 153.748 12.3936 153.303 12.6533C152.857 12.9131 152.499 13.2285 152.226 13.5996C151.967 13.9583 151.837 14.3913 151.837 14.8984L147.235 13.7109C147.235 12.8822 147.439 12.1647 147.847 11.5586C148.256 10.9401 148.794 10.4144 149.462 9.98145C150.142 9.5485 150.921 9.19596 151.8 8.92383C152.678 8.63932 153.587 8.42285 154.527 8.27441C155.48 8.11361 156.426 8.00228 157.366 7.94043C158.306 7.87858 159.184 7.84766 160.001 7.84766Z" fill="#111111"/>
<path d="M143.394 7.84766C143.394 9.13411 143.35 10.4762 143.264 11.874C143.177 13.2594 143.01 14.6882 142.763 16.1602H138.272C138.384 15.7396 138.489 15.2819 138.588 14.7871C138.662 14.3665 138.73 13.8779 138.792 13.3213C138.866 12.7523 138.903 12.1523 138.903 11.5215C137.815 11.5462 136.912 11.6514 136.194 11.8369C135.489 12.0101 134.902 12.2204 134.432 12.4678C133.962 12.7028 133.578 12.944 133.281 13.1914C132.984 13.4388 132.718 13.6367 132.483 13.7852V29H127.733V13.6738C127.684 13.278 127.566 12.944 127.381 12.6719C127.208 12.3997 127.022 12.1771 126.824 12.0039C126.602 11.7936 126.348 11.6204 126.064 11.4844L128.03 7.84766C128.488 8.00846 128.939 8.22493 129.385 8.49707C129.768 8.7321 130.17 9.03516 130.591 9.40625C131.024 9.76497 131.407 10.2103 131.741 10.7422C132.372 10.3092 132.953 9.94434 133.485 9.64746C134.017 9.33822 134.531 9.07845 135.025 8.86816C135.533 8.65788 136.052 8.49707 136.584 8.38574C137.128 8.26204 137.722 8.16309 138.365 8.08887C139.021 8.01465 139.751 7.96517 140.555 7.94043C141.371 7.90332 142.317 7.8724 143.394 7.84766Z" fill="#111111"/>
<path d="M109.048 7.84766C109.679 7.84766 110.44 7.87858 111.33 7.94043C112.221 8.00228 113.143 8.11361 114.095 8.27441C115.06 8.42285 116.012 8.63932 116.952 8.92383C117.893 9.19596 118.734 9.5485 119.476 9.98145C120.23 10.4144 120.837 10.9401 121.294 11.5586C121.764 12.1647 121.999 12.8822 121.999 13.7109V19.9824H100.736V24.7324C102.232 24.9427 103.673 25.0911 105.059 25.1777C106.444 25.252 107.774 25.2891 109.048 25.2891C110.99 25.2891 112.747 25.2148 114.318 25.0664C115.901 24.918 117.268 24.751 118.418 24.5654C119.742 24.3551 120.935 24.1139 121.999 23.8418V27.9609C119.649 28.332 117.379 28.598 115.19 28.7588C113.013 28.9196 110.965 29 109.048 29C107.118 29 105.368 28.9505 103.797 28.8516C102.226 28.7402 100.878 28.6165 99.7522 28.4805C98.441 28.332 97.2597 28.1589 96.2083 27.9609V13.7109C96.2083 12.8822 96.4124 12.1647 96.8206 11.5586C97.2288 10.9401 97.7731 10.4144 98.4534 9.98145C99.1337 9.5485 99.913 9.19596 100.791 8.92383C101.682 8.63932 102.603 8.42285 103.556 8.27441C104.508 8.11361 105.455 8.00228 106.395 7.94043C107.347 7.87858 108.232 7.84766 109.048 7.84766ZM100.736 17.0137H117.398V14.8613C117.398 14.3542 117.274 13.9212 117.027 13.5625C116.779 13.1914 116.445 12.8822 116.025 12.6348C115.616 12.3874 115.134 12.1895 114.577 12.041C114.033 11.8802 113.464 11.7627 112.87 11.6885C112.277 11.6019 111.677 11.5462 111.071 11.5215C110.477 11.4967 109.914 11.4844 109.382 11.4844C108.825 11.4844 108.226 11.4967 107.582 11.5215C106.951 11.5462 106.314 11.6019 105.671 11.6885C105.028 11.7751 104.409 11.8988 103.816 12.0596C103.222 12.208 102.696 12.4121 102.239 12.6719C101.781 12.9193 101.416 13.2285 101.144 13.5996C100.872 13.9583 100.736 14.3913 100.736 14.8984V17.0137Z" fill="#111111"/>
<path d="M79.23 7.84766C80.3186 7.84766 81.4566 7.97135 82.6441 8.21875C83.8439 8.46615 85.0067 8.78776 86.1324 9.18359V0.759766H90.9937V27.5527C90.3381 27.7507 89.5526 27.9362 88.6372 28.1094C87.7342 28.2826 86.7632 28.4372 85.7242 28.5732C84.6851 28.6969 83.6027 28.8021 82.4771 28.8887C81.3638 28.9629 80.2814 29 79.23 29C77.3251 29 75.6242 28.8701 74.1275 28.6104C72.6307 28.3382 71.3628 27.9238 70.3238 27.3672C69.2847 26.8105 68.493 26.1055 67.9488 25.252C67.4045 24.3984 67.1324 23.3841 67.1324 22.209V14.6387C67.1324 13.4635 67.4045 12.4492 67.9488 11.5957C68.493 10.7422 69.2847 10.0371 70.3238 9.48047C71.3628 8.92383 72.6307 8.51562 74.1275 8.25586C75.6242 7.98372 77.3251 7.84766 79.23 7.84766ZM80.5659 25.5488C81.0607 25.5488 81.5617 25.5241 82.0689 25.4746C82.5884 25.4251 83.0894 25.3571 83.5718 25.2705C84.0666 25.1839 84.5305 25.085 84.9634 24.9736C85.4087 24.8623 85.7984 24.7448 86.1324 24.6211V12.9688C85.2788 12.5605 84.4006 12.2266 83.4976 11.9668C82.607 11.6947 81.6298 11.5586 80.5659 11.5586C79.799 11.5586 79.0506 11.5771 78.3208 11.6143C77.6034 11.639 76.9292 11.707 76.2984 11.8184C75.6675 11.9173 75.0861 12.0658 74.5542 12.2637C74.0223 12.4492 73.5646 12.7028 73.1812 13.0244C72.8101 13.346 72.5194 13.7419 72.3091 14.2119C72.0988 14.682 71.9937 15.2448 71.9937 15.9004V21.3555C71.9937 22.3574 72.2225 23.1429 72.6802 23.7119C73.1503 24.2686 73.7749 24.6829 74.5542 24.9551C75.3335 25.2272 76.2427 25.3942 77.2818 25.4561C78.3208 25.5179 79.4156 25.5488 80.5659 25.5488Z" fill="#111111"/>
<path d="M58.0955 21.4297C57.7862 21.1576 57.4028 20.8916 56.9451 20.6318C56.4874 20.3721 55.9246 20.1432 55.2566 19.9453C54.5886 19.735 53.7908 19.568 52.863 19.4443C51.9477 19.3083 50.8715 19.2402 49.6345 19.2402C48.5336 19.2402 47.4884 19.265 46.4988 19.3145C45.5216 19.3516 44.6619 19.4753 43.9197 19.6855C43.1775 19.8835 42.5899 20.2051 42.157 20.6504C41.724 21.0957 41.5076 21.7142 41.5076 22.5059V24.8809C42.5961 25.054 43.796 25.1963 45.1072 25.3076C46.4184 25.4189 47.878 25.4746 49.4861 25.4746C50.7725 25.4746 52.1394 25.4313 53.5867 25.3447C55.0463 25.2458 56.5492 25.054 58.0955 24.7695V21.4297ZM49.7458 7.84766C50.3643 7.84766 51.1127 7.87858 51.991 7.94043C52.8692 8.00228 53.7846 8.11361 54.7371 8.27441C55.6895 8.42285 56.6296 8.63314 57.5574 8.90527C58.4975 9.16504 59.3386 9.51139 60.0808 9.94434C60.8354 10.3649 61.4415 10.8721 61.8992 11.4658C62.3569 12.0596 62.5857 12.7585 62.5857 13.5625V27.9238C61.5466 28.1341 60.3715 28.3135 59.0603 28.4619C57.9347 28.598 56.5925 28.7217 55.0339 28.833C53.4753 28.9443 51.7374 29 49.8201 29C47.9151 29 45.8865 28.9196 43.7341 28.7588C41.5942 28.598 39.3552 28.3197 37.0173 27.9238V21.2441C37.0173 20.5267 37.1843 19.902 37.5183 19.3701C37.8647 18.8258 38.3347 18.362 38.9285 17.9785C39.5222 17.5951 40.2211 17.2796 41.0251 17.0322C41.8292 16.7848 42.6951 16.5869 43.6228 16.4385C44.5505 16.29 45.5154 16.1911 46.5173 16.1416C47.5193 16.0798 48.5212 16.0488 49.5232 16.0488C51.0447 16.0488 52.3373 16.1478 53.4011 16.3457C54.4773 16.5312 55.3679 16.7354 56.073 16.958C56.8894 17.2301 57.5636 17.5332 58.0955 17.8672V14.8613C58.0955 14.3542 57.9718 13.9212 57.7244 13.5625C57.477 13.1914 57.143 12.8822 56.7224 12.6348C56.3018 12.375 55.8194 12.1709 55.2751 12.0225C54.7309 11.8617 54.1619 11.738 53.5681 11.6514C52.9744 11.5648 52.3682 11.5091 51.7498 11.4844C51.1436 11.4596 50.5746 11.4473 50.0427 11.4473C49.4861 11.4473 48.8923 11.4658 48.2615 11.5029C47.6306 11.5277 46.9998 11.5833 46.3689 11.6699C45.7504 11.7565 45.1505 11.8802 44.5691 12.041C44.0001 12.1895 43.4929 12.3936 43.0476 12.6533C42.6023 12.9131 42.2436 13.2285 41.9714 13.5996C41.7117 13.9583 41.5818 14.3913 41.5818 14.8984L36.9802 13.7109C36.9802 12.8822 37.1843 12.1647 37.5925 11.5586C38.0007 10.9401 38.5388 10.4144 39.2068 9.98145C39.8871 9.5485 40.6664 9.19596 41.5447 8.92383C42.4229 8.63932 43.3321 8.42285 44.2722 8.27441C45.2247 8.11361 46.171 8.00228 47.1111 7.94043C48.0512 7.87858 48.9294 7.84766 49.7458 7.84766Z" fill="#111111"/>
<path d="M19.1113 7.69922C21.0163 7.69922 22.7357 7.86003 24.2695 8.18164C25.8034 8.49089 27.1084 8.96094 28.1846 9.5918C29.2607 10.2227 30.0895 11.0081 30.6709 11.9482C31.2523 12.876 31.543 13.9583 31.543 15.1953V29H26.6816V16.3086C26.6816 15.2819 26.459 14.4469 26.0137 13.8037C25.5684 13.1481 24.9808 12.6348 24.251 12.2637C23.5212 11.8926 22.6924 11.639 21.7646 11.5029C20.8369 11.3669 19.8906 11.2988 18.9258 11.2988V29H14.4355V11.2988C13.6315 11.2988 12.8584 11.3669 12.1162 11.5029C11.3864 11.6266 10.6937 11.7998 10.0381 12.0225C9.38249 12.2451 8.764 12.4987 8.18262 12.7832C7.60124 13.0677 7.06315 13.3646 6.56836 13.6738V29H1.70703V13.6738C1.65755 13.278 1.54004 12.944 1.35449 12.6719C1.18132 12.3997 0.989583 12.1771 0.779297 12.0039C0.544271 11.7936 0.284505 11.6204 0 11.4844L2.07812 7.84766C2.53581 8.00846 2.9873 8.21875 3.43262 8.47852C3.81608 8.70117 4.2181 8.99186 4.63867 9.35059C5.05924 9.70931 5.43034 10.1484 5.75195 10.668C6.75391 10.0618 7.71875 9.56706 8.64648 9.18359C9.57422 8.78776 10.5514 8.4847 11.5781 8.27441C12.6048 8.05176 13.7243 7.90332 14.9365 7.8291C16.1488 7.74251 17.5404 7.69922 19.1113 7.69922Z" fill="#111111"/>
</svg>
